<svg xmlns="http://www.w3.org/2000/svg" xmlns:xlink="http://www.w3.org/1999/xlink" version="1.1" width="256" height="256" viewBox="0 0 256 256" xml:space="preserve">
<g style="stroke: none; stroke-width: 0; stroke-dasharray: none; stroke-linecap: butt; stroke-linejoin: miter; stroke-miterlimit: 10; fill: none; fill-rule: nonzero; opacity: 1;" transform="translate(1.4065934065934016 1.4065934065934016) scale(2.81 2.81)">
	<path d="M 64.495 54.945 V 23.053 v -2.016 C 64.495 9.971 55.696 1 44.842 1 h 0 C 33.988 1 25.189 9.971 25.189 21.037 v 2.016 v 31.892 l 19.644 4.309 L 64.495 54.945 z" style="stroke: none; stroke-width: 1; stroke-dasharray: none; stroke-linecap: butt; stroke-linejoin: miter; stroke-miterlimit: 10; fill: rgb(1,1,1); fill-rule: nonzero; opacity: 1;" transform=" matrix(1 0 0 1 0 0) " stroke-linecap="round"/>
	<path d="M 73.072 89 l -0.177 -26.134 c 0 -4.139 -2.901 -7.687 -6.895 -8.431 l -7.581 -1.413 c -2.934 -0.547 -5.066 -3.154 -5.066 -6.195 l -0.016 -1.567 l -17.065 -0.075 v 1.642 c 0 3.041 -2.132 5.648 -5.066 6.195 l -7.581 1.413 c -3.993 0.744 -6.895 4.292 -6.895 8.431 L 16.928 89 H 45 H 73.072 z" style="stroke: none; stroke-width: 1; stroke-dasharray: none; stroke-linecap: butt; stroke-linejoin: miter; stroke-miterlimit: 10; fill: rgb(167,134,255); fill-rule: nonzero; opacity: 1;" transform=" matrix(1 0 0 1 0 0) " stroke-linecap="round"/>
	<path d="M 57.339 52.934 c 0.299 0.097 0.609 0.174 0.929 0.228 l 5.479 0.843 L 45.003 77.091 L 25.938 54.136 l 0.316 -0.132 l 5.479 -0.842 c 0.32 -0.054 0.63 -0.131 0.929 -0.228 H 57.339 z" style="stroke: none; stroke-width: 1; stroke-dasharray: none; stroke-linecap: butt; stroke-linejoin: miter; stroke-miterlimit: 10; fill: rgb(228,238,249); fill-rule: nonzero; opacity: 1;" transform=" matrix(1 0 0 1 0 0) " stroke-linecap="round"/>
	<path d="M 32.97 53.124 c 2.562 7.112 6.568 1.515 11.872 5.574 c 5.304 -4.059 9.31 1.538 11.872 -5.574 c -1.92 -1.113 -3.184 -3.206 -3.184 -5.564 l -0.016 -1.594 l -17.36 -0.077 v 1.671 C 36.154 49.918 34.89 52.011 32.97 53.124 z" style="stroke: none; stroke-width: 1; stroke-dasharray: none; stroke-linecap: butt; stroke-linejoin: miter; stroke-miterlimit: 10; fill: rgb(59,35,20); fill-rule: nonzero; opacity: 1;" transform=" matrix(1 0 0 1 0 0) " stroke-linecap="round"/>
	<path d="M 60.44 24.254 l -0.084 7.673 c -0.195 2.373 -0.323 4.566 -1.257 6.66 c -0.505 1.132 -1.109 2.211 -1.803 3.225 c -0.694 1.014 -1.477 1.963 -2.341 2.835 c -2.024 2.042 -4.488 3.657 -7.27 4.682 l 0 0 c -1.837 0.677 -3.849 0.677 -5.687 0 l 0 0 c -7.353 -2.709 -11.946 -9.458 -12.598 -17.401 l -0.216 -8.4 c 10.754 -1.474 17.04 -3.832 21.343 -8.286 C 53.854 19.262 55.582 21.6 60.44 24.254 z" style="stroke: none; stroke-width: 1; stroke-dasharray: none; stroke-linecap: butt; stroke-linejoin: miter; stroke-miterlimit: 10; fill: rgb(73,41,20); fill-rule: nonzero; opacity: 1;" transform=" matrix(1 0 0 1 0 0) " stroke-linecap="round"/>
	<path d="M 51.651 38.532 c -4.259 5.707 -8.517 5.746 -12.776 0" style="stroke: none; stroke-width: 1; stroke-dasharray: none; stroke-linecap: butt; stroke-linejoin: miter; stroke-miterlimit: 10; fill: rgb(255,255,255); fill-rule: nonzero; opacity: 1;" transform=" matrix(1 0 0 1 0 0) " stroke-linecap="round"/>
	<polygon points="47.42,60.3 42.58,60.3 41.6,54.62 48.41,54.62 " style="stroke: none; stroke-width: 1; stroke-dasharray: none; stroke-linecap: butt; stroke-linejoin: miter; stroke-miterlimit: 10; fill: rgb(227,73,101); fill-rule: nonzero; opacity: 1;" transform="  matrix(1 0 0 1 0 0) "/>
	<polygon points="47.42,60.3 50,70.93 45,77.09 45,77.09 40,70.94 42.58,60.3 " style="stroke: none; stroke-width: 1; stroke-dasharray: none; stroke-linecap: butt; stroke-linejoin: miter; stroke-miterlimit: 10; fill: rgb(227,73,101); fill-rule: nonzero; opacity: 1;" transform="  matrix(1 0 0 1 0 0) "/>
	<polygon points="48.41,54.62 54.22,49.62 58.2,52.85 52.05,62.12 47.72,58.57 " style="stroke: none; stroke-width: 1; stroke-dasharray: none; stroke-linecap: butt; stroke-linejoin: miter; stroke-miterlimit: 10; fill: rgb(208,221,243); fill-rule: nonzero; opacity: 1;" transform="  matrix(1 0 0 1 0 0) "/>
	<polygon points="41.6,54.62 35.78,49.62 31.91,52.82 37.95,62.12 42.06,58.76 " style="stroke: none; stroke-width: 1; stroke-dasharray: none; stroke-linecap: butt; stroke-linejoin: miter; stroke-miterlimit: 10; fill: rgb(208,221,243); fill-rule: nonzero; opacity: 1;" transform="  matrix(1 0 0 1 0 0) "/>
	<path d="M 37.478 29.409 c -0.358 0 -0.704 -0.192 -0.884 -0.53 c -0.259 -0.488 -0.074 -1.093 0.413 -1.353 c 2.127 -1.132 4.284 -1.132 6.412 0 c 0.487 0.259 0.672 0.865 0.413 1.353 c -0.259 0.487 -0.863 0.672 -1.353 0.413 c -1.525 -0.812 -3.008 -0.812 -4.533 0 C 37.797 29.372 37.636 29.409 37.478 29.409 z" style="stroke: none; stroke-width: 1; stroke-dasharray: none; stroke-linecap: butt; stroke-linejoin: miter; stroke-miterlimit: 10; fill: rgb(0,0,0); fill-rule: nonzero; opacity: 1;" transform=" matrix(1 0 0 1 0 0) " stroke-linecap="round"/>
	<path d="M 47.88 29.409 c -0.358 0 -0.704 -0.192 -0.884 -0.53 c -0.26 -0.487 -0.074 -1.093 0.413 -1.353 c 2.127 -1.132 4.284 -1.132 6.411 0 c 0.487 0.259 0.673 0.865 0.413 1.353 c -0.259 0.487 -0.864 0.673 -1.353 0.413 c -1.525 -0.812 -3.007 -0.812 -4.532 0 C 48.199 29.372 48.038 29.409 47.88 29.409 z" style="stroke: none; stroke-width: 1; stroke-dasharray: none; stroke-linecap: butt; stroke-linejoin: miter; stroke-miterlimit: 10; fill: rgb(0,0,0); fill-rule: nonzero; opacity: 1;" transform=" matrix(1 0 0 1 0 0) " stroke-linecap="round"/>
	<path d="M 45.403 43.101 c -0.003 0 -0.006 0 -0.01 0 c -2.413 -0.004 -4.789 -1.56 -7.06 -4.625 c -0.225 -0.303 -0.26 -0.708 -0.09 -1.045 s 0.515 -0.55 0.893 -0.55 H 51.69 c 0.378 0 0.725 0.213 0.894 0.552 c 0.17 0.338 0.134 0.743 -0.092 1.046 C 50.203 41.545 47.817 43.101 45.403 43.101 z M 41.272 38.88 c 1.412 1.473 2.794 2.218 4.124 2.221 c 0.002 0 0.004 0 0.006 0 c 1.333 0 2.722 -0.746 4.144 -2.221 H 41.272 z" style="stroke: none; stroke-width: 1; stroke-dasharray: none; stroke-linecap: butt; stroke-linejoin: miter; stroke-miterlimit: 10; fill: rgb(0,0,0); fill-rule: nonzero; opacity: 1;" transform=" matrix(1 0 0 1 0 0) " stroke-linecap="round"/>
	<path d="M 28.132 90 c -0.552 0 -1 -0.447 -1 -1 V 78.482 c 0 -0.553 0.448 -1 1 -1 s 1 0.447 1 1 V 89 C 29.132 89.553 28.685 90 28.132 90 z" style="stroke: none; stroke-width: 1; stroke-dasharray: none; stroke-linecap: butt; stroke-linejoin: miter; stroke-miterlimit: 10; fill: rgb(0,0,0); fill-rule: nonzero; opacity: 1;" transform=" matrix(1 0 0 1 0 0) " stroke-linecap="round"/>
	<path d="M 61.868 90 c -0.553 0 -1 -0.447 -1 -1 V 78.482 c 0 -0.553 0.447 -1 1 -1 s 1 0.447 1 1 V 89 C 62.868 89.553 62.421 90 61.868 90 z" style="stroke: none; stroke-width: 1; stroke-dasharray: none; stroke-linecap: butt; stroke-linejoin: miter; stroke-miterlimit: 10; fill: rgb(0,0,0); fill-rule: nonzero; opacity: 1;" transform=" matrix(1 0 0 1 0 0) " stroke-linecap="round"/>
	<path d="M 64.312 55.009 c -0.553 0 -1 -0.447 -1 -1 v -33.32 C 63.312 10.384 55.097 2 45 2 c -10.097 0 -18.312 8.384 -18.312 18.689 v 33.32 c 0 0.553 -0.448 1 -1 1 s -1 -0.447 -1 -1 v -33.32 C 24.688 9.281 33.8 0 45 0 c 11.2 0 20.312 9.281 20.312 20.689 v 33.32 C 65.312 54.562 64.864 55.009 64.312 55.009 z" style="stroke: none; stroke-width: 1; stroke-dasharray: none; stroke-linecap: butt; stroke-linejoin: miter; stroke-miterlimit: 10; fill: rgb(0,0,0); fill-rule: nonzero; opacity: 1;" transform=" matrix(1 0 0 1 0 0) " stroke-linecap="round"/>
	<path d="M 45 49.987 c -1.064 0 -2.127 -0.187 -3.14 -0.56 c -7.351 -2.709 -12.344 -9.589 -13.03 -17.957 l -0.215 -8.31 c -0.013 -0.51 0.359 -0.947 0.864 -1.017 c 10.485 -1.437 16.393 -3.71 20.39 -7.847 c 0.197 -0.205 0.456 -0.311 0.758 -0.304 c 0.284 0.011 0.55 0.143 0.731 0.362 l 0.652 0.791 c 2.818 3.423 4.52 5.489 8.797 7.826 c 0.324 0.177 0.524 0.519 0.521 0.888 l -0.119 8.021 c -0.181 2.246 -0.353 4.367 -1.285 6.459 c -0.518 1.16 -1.143 2.279 -1.859 3.326 c -0.712 1.042 -1.524 2.026 -2.414 2.925 c -2.145 2.163 -4.671 3.789 -7.51 4.835 C 47.127 49.801 46.063 49.987 45 49.987 z M 30.637 24.001 l 0.189 7.362 c 0.628 7.642 5.013 13.713 11.726 16.187 c 1.579 0.582 3.318 0.582 4.896 0 c 2.563 -0.944 4.844 -2.414 6.78 -4.366 c 0.805 -0.813 1.539 -1.703 2.185 -2.646 c 0.648 -0.948 1.215 -1.961 1.684 -3.012 c 0.793 -1.779 0.943 -3.645 1.118 -5.805 l 0.033 -0.414 l 0.073 -6.874 c -4.217 -2.397 -6.078 -4.643 -8.813 -7.964 C 46.331 20.35 40.422 22.581 30.637 24.001 z" style="stroke: none; stroke-width: 1; stroke-dasharray: none; stroke-linecap: butt; stroke-linejoin: miter; stroke-miterlimit: 10; fill: rgb(0,0,0); fill-rule: nonzero; opacity: 1;" transform=" matrix(1 0 0 1 0 0) " stroke-linecap="round"/>
	<path d="M 47.423 61.305 h -4.84 c -0.486 0 -0.902 -0.35 -0.985 -0.829 l -0.984 -5.684 c -0.05 -0.291 0.03 -0.589 0.22 -0.814 c 0.19 -0.227 0.47 -0.356 0.765 -0.356 h 6.808 c 0.295 0 0.575 0.13 0.765 0.356 c 0.19 0.226 0.271 0.523 0.221 0.814 l -0.984 5.684 C 48.325 60.955 47.909 61.305 47.423 61.305 z M 43.425 59.305 h 3.156 l 0.638 -3.684 h -4.432 L 43.425 59.305 z" style="stroke: none; stroke-width: 1; stroke-dasharray: none; stroke-linecap: butt; stroke-linejoin: miter; stroke-miterlimit: 10; fill: rgb(0,0,0); fill-rule: nonzero; opacity: 1;" transform=" matrix(1 0 0 1 0 0) " stroke-linecap="round"/>
	<path d="M 45.02 78.091 c -0.301 0 -0.603 -0.136 -0.792 -0.369 l -5.002 -6.156 c -0.197 -0.243 -0.27 -0.563 -0.196 -0.867 l 2.582 -10.63 c 0.109 -0.448 0.51 -0.764 0.972 -0.764 h 4.857 c 0.462 0 0.864 0.316 0.972 0.766 l 2.563 10.628 c 0.073 0.303 0.001 0.621 -0.194 0.863 l -4.983 6.158 C 45.607 77.954 45.322 78.091 45.02 78.091 z M 41.09 70.688 l 3.92 4.825 l 3.905 -4.826 l -2.262 -9.383 h -3.284 L 41.09 70.688 z" style="stroke: none; stroke-width: 1; stroke-dasharray: none; stroke-linecap: butt; stroke-linejoin: miter; stroke-miterlimit: 10; fill: rgb(0,0,0); fill-rule: nonzero; opacity: 1;" transform=" matrix(1 0 0 1 0 0) " stroke-linecap="round"/>
	<path d="M 44.997 78.09 L 44.997 78.09 c -0.301 0 -0.586 -0.136 -0.776 -0.37 L 25.477 54.634 c -0.348 -0.429 -0.283 -1.059 0.146 -1.406 c 0.43 -0.348 1.059 -0.283 1.407 0.146 l 17.967 22.13 l 17.974 -22.13 c 0.349 -0.427 0.977 -0.494 1.407 -0.146 c 0.429 0.349 0.493 0.979 0.146 1.407 l -18.75 23.085 C 45.583 77.954 45.298 78.09 44.997 78.09 z" style="stroke: none; stroke-width: 1; stroke-dasharray: none; stroke-linecap: butt; stroke-linejoin: miter; stroke-miterlimit: 10; fill: rgb(0,0,0); fill-rule: nonzero; opacity: 1;" transform=" matrix(1 0 0 1 0 0) " stroke-linecap="round"/>
	<path d="M 52.052 63.121 c -0.229 0 -0.454 -0.079 -0.635 -0.227 l -4.328 -3.552 c -0.278 -0.229 -0.412 -0.589 -0.351 -0.944 l 0.684 -3.948 c 0.039 -0.228 0.157 -0.436 0.332 -0.587 l 5.808 -5.006 c 0.367 -0.316 0.908 -0.323 1.283 -0.019 l 3.988 3.238 c 0.4 0.325 0.488 0.9 0.203 1.329 l -6.151 9.268 c -0.156 0.236 -0.405 0.395 -0.685 0.437 C 52.15 63.117 52.101 63.121 52.052 63.121 z M 48.809 58.166 l 3.022 2.48 l 5.036 -7.589 l -2.633 -2.139 l -4.903 4.226 L 48.809 58.166 z" style="stroke: none; stroke-width: 1; stroke-dasharray: none; stroke-linecap: butt; stroke-linejoin: miter; stroke-miterlimit: 10; fill: rgb(0,0,0); fill-rule: nonzero; opacity: 1;" transform=" matrix(1 0 0 1 0 0) " stroke-linecap="round"/>
	<path d="M 37.955 63.121 c -0.051 0 -0.102 -0.004 -0.153 -0.012 c -0.281 -0.044 -0.53 -0.205 -0.686 -0.443 l -6.048 -9.302 c -0.277 -0.426 -0.19 -0.992 0.201 -1.315 l 3.876 -3.204 c 0.375 -0.311 0.919 -0.306 1.29 0.013 l 5.816 5.006 c 0.176 0.151 0.293 0.358 0.333 0.587 l 0.684 3.948 c 0.062 0.355 -0.073 0.716 -0.351 0.944 l -4.328 3.552 C 38.41 63.042 38.185 63.121 37.955 63.121 z M 33.231 53.021 l 4.953 7.618 l 3.013 -2.474 l -0.523 -3.021 l -4.905 -4.222 L 33.231 53.021 z" style="stroke: none; stroke-width: 1; stroke-dasharray: none; stroke-linecap: butt; stroke-linejoin: miter; stroke-miterlimit: 10; fill: rgb(0,0,0); fill-rule: nonzero; opacity: 1;" transform=" matrix(1 0 0 1 0 0) " stroke-linecap="round"/>
	<path d="M 35.786 50.617 c -0.15 0 -0.304 -0.034 -0.447 -0.106 c -0.494 -0.247 -0.693 -0.849 -0.446 -1.342 c 0.373 -0.743 0.57 -1.579 0.57 -2.417 V 45.11 c 0 -0.552 0.448 -1 1 -1 s 1 0.448 1 1 v 1.642 c 0 1.148 -0.271 2.294 -0.782 3.313 C 36.505 50.415 36.152 50.617 35.786 50.617 z" style="stroke: none; stroke-width: 1; stroke-dasharray: none; stroke-linecap: butt; stroke-linejoin: miter; stroke-miterlimit: 10; fill: rgb(0,0,0); fill-rule: nonzero; opacity: 1;" transform=" matrix(1 0 0 1 0 0) " stroke-linecap="round"/>
	<path d="M 73.072 90 H 16.928 c -0.552 0 -1 -0.447 -1 -1 V 62.784 c 0 -4.62 3.242 -8.578 7.709 -9.411 l 7.578 -1.412 c 0.143 -0.026 0.285 -0.059 0.423 -0.098 c 0.531 -0.151 1.083 0.16 1.233 0.692 c 0.149 0.532 -0.161 1.084 -0.693 1.233 c -0.195 0.055 -0.395 0.101 -0.597 0.139 l -7.578 1.412 c -3.52 0.656 -6.075 3.787 -6.075 7.444 V 88 h 54.144 V 62.784 c 0 -3.657 -2.556 -6.788 -6.076 -7.444 l -7.578 -1.412 c -0.156 -0.03 -0.309 -0.063 -0.46 -0.102 c -0.536 -0.135 -0.86 -0.679 -0.726 -1.214 c 0.135 -0.537 0.679 -0.859 1.214 -0.726 c 0.112 0.028 0.226 0.054 0.341 0.075 l 7.576 1.411 c 4.467 0.833 7.709 4.791 7.709 9.411 V 89 C 74.072 89.553 73.625 90 73.072 90 z" style="stroke: none; stroke-width: 1; stroke-dasharray: none; stroke-linecap: butt; stroke-linejoin: miter; stroke-miterlimit: 10; fill: rgb(0,0,0); fill-rule: nonzero; opacity: 1;" transform=" matrix(1 0 0 1 0 0) " stroke-linecap="round"/>
	<path d="M 54.214 50.616 c -0.366 0 -0.72 -0.202 -0.895 -0.552 c -0.512 -1.02 -0.782 -2.165 -0.782 -3.313 l -0.016 -1.557 c -0.006 -0.552 0.438 -1.004 0.99 -1.01 c 0.003 0 0.007 0 0.01 0 c 0.548 0 0.994 0.441 1 0.99 l 0.016 1.566 c 0 0.848 0.197 1.683 0.569 2.426 c 0.248 0.493 0.049 1.095 -0.445 1.342 C 54.518 50.582 54.364 50.616 54.214 50.616 z" style="stroke: none; stroke-width: 1; stroke-dasharray: none; stroke-linecap: butt; stroke-linejoin: miter; stroke-miterlimit: 10; fill: rgb(0,0,0); fill-rule: nonzero; opacity: 1;" transform=" matrix(1 0 0 1 0 0) " stroke-linecap="round"/>
</g>
</svg>